<svg xmlns="http://www.w3.org/2000/svg" viewBox="0 0 535.19 270.79"><defs><style>.cls-1{fill:#e8e8e8;}.cls-2{fill:#181878;}.cls-3{fill:#e5e5e5;}.cls-4{fill:#fff;}</style></defs><title>자산 3</title><g id="레이어_2" data-name="레이어 2"><g id="레이어_1-2" data-name="레이어 1"><path class="cls-1" d="M366.29,250c-1.23-2.22-2.57-5-4-8.33a33.82,33.82,0,0,1,0-23.84q2.21-5,4-8.32h2.83a49.8,49.8,0,0,0-4.06,10.67,39.52,39.52,0,0,0,0,19.17A50.47,50.47,0,0,0,369.12,250Z"/><path class="cls-1" d="M391.85,235.93v13.48H388.1V235.93H373.48v-3.64h32.94v3.64ZM395,220.85c1.82,2.14,4.94,3.83,9.39,5.06l-2.51,3.16a22.4,22.4,0,0,1-6.9-3.36,15.55,15.55,0,0,1-5-5.17,18.07,18.07,0,0,1-4.62,5,21.63,21.63,0,0,1-7.35,3.53l-2.51-3.16c4.38-1.1,7.54-2.76,9.36-5s2.88-3.9,3.11-5.09H377.4v-3.7h25.15v3.7H392C392.18,217,393.24,218.68,395,220.85Z"/><path class="cls-1" d="M414.65,239.39a39.52,39.52,0,0,0,0-19.17,50.41,50.41,0,0,0-4.07-10.67h2.83a91.69,91.69,0,0,1,4,8.32,33.53,33.53,0,0,1,0,23.84,87.06,87.06,0,0,1-4,8.33h-2.83A51.1,51.1,0,0,0,414.65,239.39Z"/><path class="cls-1" d="M439.62,218.68c.14-.68.26-1.33.39-1.85H428V213.1h16.44a23.62,23.62,0,0,1-4.26,13.43,24.1,24.1,0,0,1-12.38,9l-2.29-3a33.51,33.51,0,0,0,6.6-3.39,13.18,13.18,0,0,0,5-5c-.67.11-1.34.2-2.12.29s-1.44.1-2.08.1l-5.95.1v-3.31l7.33,0c.83-.06,1.59-.14,2.4-.21a18.53,18.53,0,0,0,2.19-.21C439.21,220.09,439.44,219.35,439.62,218.68Zm-8.36,29.84V236.81H435v8h20.71v3.7Zm19.84-9.82V225.57H444v-3.74h7.09v-11.2h3.76V238.7Z"/><path class="cls-1" d="M477.92,230.57a15.29,15.29,0,0,1-3.76-3.16,17.21,17.21,0,0,1-3.06-4.35,11.16,11.16,0,0,1-2.56,4.6,22,22,0,0,1-4,3.82l-2.93-3q4.92-2.82,6.23-7a25.05,25.05,0,0,0,1.31-7.16v-2.62h3.93v2.62a20,20,0,0,0,1.33,6.75,11.71,11.71,0,0,0,5.86,6.24ZM468.61,249V233.22h3.75v4.06h16.39v-4.06h3.72V249ZM488.75,241H472.36v4.31h16.39Zm-6.55-9.6V221.35h-5.75V217.5h5.75v-6.19h3.58v20.12Zm6.76.09V210.63h3.65v20.89Z"/><path class="cls-1" d="M518.7,233.28a19.46,19.46,0,0,1-5.11-4.16A17.06,17.06,0,0,1,510,223.6a16.06,16.06,0,0,1-3.3,6,22.58,22.58,0,0,1-5.4,4.61l-2.65-2.86c4.55-2.53,7.29-5.45,8.1-8.83a33.32,33.32,0,0,0,1.31-7.62V211.7H512v3.16a27,27,0,0,0,1.55,7.43c1,3.22,3.53,5.83,7.58,7.88Zm-13.25,15.24V236.45h3.75v8.37h20.5v3.7Zm19.73-9.82V226.89h-6.61v-3.58h6.61v-4.38h-6.61v-3.62h6.61v-4.68h3.71V238.7Z"/><path class="cls-2" d="M131.81,0A131.8,131.8,0,0,0,0,131.82H38.32a93.49,93.49,0,0,1,93.49-93.49Z"/><path class="cls-3" d="M0,139A131.8,131.8,0,0,0,131.81,270.79V232.47A93.5,93.5,0,0,1,38.32,139Z"/><path class="cls-3" d="M139,0V38.33a93.42,93.42,0,0,1,89.87,68h39.45A131.85,131.85,0,0,0,139,0Z"/><path class="cls-2" d="M139,232.47v38.32a131.81,131.81,0,0,0,125.29-90.93H222.93A93.41,93.41,0,0,1,139,232.47Z"/><path class="cls-2" d="M78.94,115.27a4.42,4.42,0,0,0-3.23,1.34,4.49,4.49,0,0,0-1.33,3.24v34.26a4.63,4.63,0,0,0,1.33,3.33,4.36,4.36,0,0,0,3.23,1.36h27.71V165a2.93,2.93,0,0,1-.83,2.13,2.87,2.87,0,0,1-2.12.89H77.53a12.33,12.33,0,0,1-4.86-1,12,12,0,0,1-3.94-2.64,10.87,10.87,0,0,1-2.58-3.86,12.22,12.22,0,0,1-1-4.76V118.32a12.33,12.33,0,0,1,3.53-8.64,13.56,13.56,0,0,1,3.94-2.57,11.38,11.38,0,0,1,4.86-1H97.41a26.25,26.25,0,0,0,9.24-1.59v7.24a2.24,2.24,0,0,1-1.12,2,8.69,8.69,0,0,1-2.56,1.07,16,16,0,0,1-3.07.44c-1,0-1.85,0-2.49,0Z"/><path class="cls-2" d="M116.45,155.77V134.22a12.45,12.45,0,0,1,.9-4.76,12.29,12.29,0,0,1,2.58-3.89,14.68,14.68,0,0,1,3.92-2.59,11.72,11.72,0,0,1,4.82-1h23.06a24.25,24.25,0,0,0,9.1-1.6v7.38a2.47,2.47,0,0,1-.22,1.07,1.9,1.9,0,0,1-.67.75,6.52,6.52,0,0,1-2.65,1.14,25.57,25.57,0,0,1-5.56.46H130.24a4.36,4.36,0,0,0-3.3,1.37,4.68,4.68,0,0,0-1.31,3.34v18.22a4.53,4.53,0,0,0,1.31,3.33,4.39,4.39,0,0,0,3.3,1.36h13.84a4.26,4.26,0,0,0,3.2-1.36,4.52,4.52,0,0,0,1.34-3.33V136a3.66,3.66,0,0,0-.16-1.18,4.12,4.12,0,0,0-.49-1.13h9.89v22.12a11.59,11.59,0,0,1-1,4.76,12.38,12.38,0,0,1-2.58,3.86,12.23,12.23,0,0,1-3.9,2.64,11.91,11.91,0,0,1-4.73,1h-17a12.31,12.31,0,0,1-8.74-3.61,11.14,11.14,0,0,1-2.58-3.86A12.75,12.75,0,0,1,116.45,155.77Z"/><path class="cls-2" d="M179.16,131.18V165a2.86,2.86,0,0,1-1,2.13,3.2,3.2,0,0,1-2.12.89H169.9V122h29.18a11.12,11.12,0,0,1,4.71,1,12.06,12.06,0,0,1,3.9,2.6,14.15,14.15,0,0,1,2.69,3.89,11.62,11.62,0,0,1,1,4.76V165a2.79,2.79,0,0,1-1,2.13,3.06,3.06,0,0,1-2.12.89h-6.15V135.8a4.46,4.46,0,0,0-1.34-3.31,4.4,4.4,0,0,0-3.25-1.31Z"/><path class="cls-4" d="M236.69,131.18a4.42,4.42,0,0,0-3.25,1.31,4.59,4.59,0,0,0-1.31,3.31v18.31a4.65,4.65,0,0,0,1.31,3.33,4.39,4.39,0,0,0,3.25,1.36h25.84V165a2.93,2.93,0,0,1-.83,2.13,2.73,2.73,0,0,1-2.09.89H234.89a12.18,12.18,0,0,1-4.8-1,11.38,11.38,0,0,1-3.94-2.64,10.66,10.66,0,0,1-2.6-3.86,12.2,12.2,0,0,1-.93-4.76V134.22a11.92,11.92,0,0,1,.93-4.76,11.71,11.71,0,0,1,2.6-3.89,13.61,13.61,0,0,1,3.94-2.59,11.86,11.86,0,0,1,4.8-1h18.45a25.1,25.1,0,0,0,9.19-1.6v7.3a2.19,2.19,0,0,1-1.06,1.94,9.61,9.61,0,0,1-2.62,1.1,14.65,14.65,0,0,1-3.05.41c-1,0-1.86.05-2.46.05Z"/><path class="cls-4" d="M315.91,134.22V138a12.18,12.18,0,0,1-1,4.84,12,12,0,0,1-2.65,3.92,10.69,10.69,0,0,1-3.92,2.72,12.25,12.25,0,0,1-4.77,1H282.24v3.69a4.64,4.64,0,0,0,1.3,3.33,4.23,4.23,0,0,0,3.23,1.36h18.16a26.69,26.69,0,0,0,9.3-1.6v7.26a2.2,2.2,0,0,1-1.13,2,7.88,7.88,0,0,1-2.63,1,25.37,25.37,0,0,1-3,.41c-1.06.05-1.86.08-2.51.08h-19.8a12.25,12.25,0,0,1-4.85-1,12.06,12.06,0,0,1-4-2.64,11.47,11.47,0,0,1-2.6-3.86,12.76,12.76,0,0,1-.91-4.76V134.22a12.45,12.45,0,0,1,.91-4.76,12.7,12.7,0,0,1,2.6-3.89,14.59,14.59,0,0,1,4-2.59,11.93,11.93,0,0,1,4.85-1h18.49a11.93,11.93,0,0,1,4.77,1,13.65,13.65,0,0,1,3.92,2.59,12.33,12.33,0,0,1,2.65,3.89A11.6,11.6,0,0,1,315.91,134.22Zm-9.3,2.15v-.81a4.39,4.39,0,0,0-4.47-4.38H286.77a4.32,4.32,0,0,0-3.23,1.28,4.25,4.25,0,0,0-1.3,3.1v5.69h19.9a4.14,4.14,0,0,0,3.18-1.48A5.15,5.15,0,0,0,306.61,136.37Z"/><path class="cls-4" d="M356,122a11.63,11.63,0,0,1,4.75,1,15.12,15.12,0,0,1,3.91,2.59,14.76,14.76,0,0,1,2.59,3.89,11.45,11.45,0,0,1,1,4.76v21.55a11.72,11.72,0,0,1-1,4.76,13.13,13.13,0,0,1-2.59,3.86,12.38,12.38,0,0,1-3.91,2.64,11.94,11.94,0,0,1-4.75,1H336.19v15.26a2.82,2.82,0,0,1-1,2.2,2.92,2.92,0,0,1-2.08.92h-6.38V122H333a2.79,2.79,0,0,1,1.45.45,4.24,4.24,0,0,1,1.18,1.13,12.08,12.08,0,0,1,3.09-1.16,13.94,13.94,0,0,1,3.48-.42Zm2.78,32.13V135.8a4.57,4.57,0,0,0-1.29-3.31,4.45,4.45,0,0,0-3.32-1.31H340.76a4.26,4.26,0,0,0-3.22,1.31,4.57,4.57,0,0,0-1.35,3.4V158.8h17.94a4.42,4.42,0,0,0,3.32-1.36A4.64,4.64,0,0,0,358.74,154.11Z"/><path class="cls-4" d="M397.5,158.8h12.06V165a2.66,2.66,0,0,1-.9,2.11,3.1,3.1,0,0,1-2.08.85H395.77a12.27,12.27,0,0,1-4.8-.94,11,11,0,0,1-3.89-2.6,11.78,11.78,0,0,1-3.62-8.69V131.18h-9.2V125a3,3,0,0,1,3.11-3h6.09v-12.9a3.07,3.07,0,0,1,.92-2,2.81,2.81,0,0,1,2.1-1h6.46V122h7.53a24.06,24.06,0,0,0,9.09-1.6v7.3a2.29,2.29,0,0,1-1.06,2,7.74,7.74,0,0,1-2.52,1,22,22,0,0,1-3,.38c-1,.06-1.84.08-2.47.08h-7.53v23a4.46,4.46,0,0,0,1.35,3.27A4.31,4.31,0,0,0,397.5,158.8Z"/><path class="cls-4" d="M428.3,111.68a2.71,2.71,0,0,1-.9,2.1,3.1,3.1,0,0,1-2.18.88H418.8V108.6a3.35,3.35,0,0,1,.83-2.19,2.92,2.92,0,0,1,2.2-.94h1.51a21.27,21.27,0,0,0,2.8-.16,17.06,17.06,0,0,0,2.16-.39ZM418.8,125a3,3,0,0,1,.83-2.08,2.83,2.83,0,0,1,2.2-.92h6.47v43a2.76,2.76,0,0,1-.9,2.13,3.11,3.11,0,0,1-2.18.89H418.8Z"/><path class="cls-4" d="M440.25,155.77V134.22a12,12,0,0,1,3.52-8.65,14.73,14.73,0,0,1,3.9-2.59,11.72,11.72,0,0,1,4.82-1h23.08a24.45,24.45,0,0,0,9.11-1.6v7.38a2.49,2.49,0,0,1-.24,1.07,1.81,1.81,0,0,1-.66.75,6.85,6.85,0,0,1-2.66,1.14,25.4,25.4,0,0,1-5.55.46H454.05a4.46,4.46,0,0,0-3.31,1.37,4.71,4.71,0,0,0-1.29,3.34v18.22a4.55,4.55,0,0,0,1.29,3.33,4.49,4.49,0,0,0,3.31,1.36h13.82a4.33,4.33,0,0,0,3.23-1.36,4.53,4.53,0,0,0,1.36-3.33V136a4.74,4.74,0,0,0-.17-1.18,6.49,6.49,0,0,0-.48-1.13h9.87v22.12a11.74,11.74,0,0,1-1,4.76,12.63,12.63,0,0,1-2.61,3.86,11.78,11.78,0,0,1-3.87,2.64,12,12,0,0,1-4.75,1h-17a12.22,12.22,0,0,1-8.72-3.61,10.92,10.92,0,0,1-2.6-3.86A12.38,12.38,0,0,1,440.25,155.77Z"/><path class="cls-4" d="M503,131.18V165a2.71,2.71,0,0,1-1,2.13,2.91,2.91,0,0,1-2.08.89h-6.11V122h29.14a11.08,11.08,0,0,1,4.68,1,12.15,12.15,0,0,1,3.92,2.6,12.7,12.7,0,0,1,2.66,3.89,11,11,0,0,1,1,4.76V165a2.77,2.77,0,0,1-1,2.13,3.08,3.08,0,0,1-2.16.89H526V135.8a4.52,4.52,0,0,0-1.33-3.31,4.47,4.47,0,0,0-3.25-1.31Z"/></g></g></svg>